<?xml version="1.0" encoding="UTF-8" standalone="no"?>
<svg
   xmlns:dc="http://purl.org/dc/elements/1.1/"
   xmlns:cc="http://creativecommons.org/ns#"
   xmlns:rdf="http://www.w3.org/1999/02/22-rdf-syntax-ns#"
   xmlns:svg="http://www.w3.org/2000/svg"
   xmlns="http://www.w3.org/2000/svg"
   xmlns:sodipodi="http://sodipodi.sourceforge.net/DTD/sodipodi-0.dtd"
   xmlns:inkscape="http://www.inkscape.org/namespaces/inkscape"
   sodipodi:docname="Deer.svg"
   inkscape:version="1.0 (4035a4fb49, 2020-05-01)"
   id="svg202"
   version="1.1"
   viewBox="0 0 210 297"
   height="297mm"
   width="210mm">
  <defs
     id="defs196" />
  <sodipodi:namedview
     inkscape:window-maximized="1"
     inkscape:window-y="-9"
     inkscape:window-x="-9"
     inkscape:window-height="1001"
     inkscape:window-width="1920"
     showgrid="false"
     inkscape:document-rotation="0"
     inkscape:current-layer="layer1"
     inkscape:document-units="mm"
     inkscape:cy="397.23593"
     inkscape:cx="503.56236"
     inkscape:zoom="1.4"
     inkscape:pageshadow="2"
     inkscape:pageopacity="0.0"
     borderopacity="1.0"
     bordercolor="#666666"
     pagecolor="#ffffff"
     id="base" />
  <metadata
     id="metadata199">
    <rdf:RDF>
      <cc:Work
         rdf:about="">
        <dc:format>image/svg+xml</dc:format>
        <dc:type
           rdf:resource="http://purl.org/dc/dcmitype/StillImage" />
        <dc:title></dc:title>
      </cc:Work>
    </rdf:RDF>
  </metadata>
  <g
     id="layer1"
     inkscape:groupmode="layer"
     inkscape:label="Layer 1">
    <path
       id="path246"
       d="m 121.60663,119.30433 -0.0276,1.65358 7.74428,0.0821 0.0276,-1.65358 z"
       style="stroke-width:0.551195" />
    <path
       id="path244"
       d="m 132.27169,119.38643 h -1.87351 v 1.65358 h 1.87351 z"
       style="stroke-width:0.551195" />
    <path
       id="path242"
       d="m 107.55116,109.27255 v -0.79923 h -1.37799 v 2.23234 h 2.23234 v -1.43311 z"
       style="stroke-width:0.551195" />
    <path
       id="path218"
       d="m 139.74094,114.42567 -1.73627,5.26391 1.07483,7.6346 4.6576,4.02373 v 12.89795 h -4.21664 v -9.81181 l -2.94889,-1.65359 v 2.78409 l -3.99617,8.68131 h -4.49223 l 4.1064,-8.95691 -2.09454,-3.33528 h -12.0166 l 1.29586,12.29219 h -3.74813 l -3.44496,-15.37833 -0.19347,-0.38584 h -0.0276 l -0.0551,-0.1378 -3.00401,0.77168 v 2.59061 l 2.2869,0.88191 v 5.31903 l -6.53056,-3.44496 V 126.084 l 5.01588,-2.14966 -4.74028,-9.09472 -5.925343,-0.49607 -3.444968,-3.61088 12.787721,-5.56707 1.15751,-2.17722 -5.98047,0.66144 -6.338736,-4.850523 1.01971,-1.32287 5.787546,4.465233 1.32287,-0.1378 -1.62603,-2.921883 1.43311,-0.79868 1.92918,3.527103 3.36284,-0.38584 0.38584,-0.71655 -2.72897,-5.098559 1.46012,-0.771122 3.08724,5.842671 -0.2756,0.55119 h 0.0276 l -1.04727,2.09454 h -0.0276 l -0.52363,0.99215 4.82295,-2.09454 -1.01971,6.25606 -2.67329,0.1378 3.55465,8.18524 h 18.18943 l 4.87863,-8.84667 z"
       style="stroke-width:0.551195" />
  </g>
</svg>
