<?xml version="1.0" encoding="UTF-8" standalone="no"?>
<svg
   xmlns:dc="http://purl.org/dc/elements/1.1/"
   xmlns:cc="http://creativecommons.org/ns#"
   xmlns:rdf="http://www.w3.org/1999/02/22-rdf-syntax-ns#"
   xmlns:svg="http://www.w3.org/2000/svg"
   xmlns="http://www.w3.org/2000/svg"
   xmlns:sodipodi="http://sodipodi.sourceforge.net/DTD/sodipodi-0.dtd"
   xmlns:inkscape="http://www.inkscape.org/namespaces/inkscape"
   sodipodi:docname="Lake.svg"
   inkscape:version="1.0 (4035a4fb49, 2020-05-01)"
   id="svg8"
   version="1.1"
   viewBox="0 0 210 297"
   height="297mm"
   width="210mm">
  <defs
     id="defs2" />
  <sodipodi:namedview
     inkscape:window-maximized="1"
     inkscape:window-y="-9"
     inkscape:window-x="-9"
     inkscape:window-height="1001"
     inkscape:window-width="1920"
     showgrid="false"
     inkscape:document-rotation="0"
     inkscape:current-layer="layer1"
     inkscape:document-units="mm"
     inkscape:cy="316.56344"
     inkscape:cx="375.89842"
     inkscape:zoom="1.4"
     inkscape:pageshadow="2"
     inkscape:pageopacity="0.0"
     borderopacity="1.0"
     bordercolor="#666666"
     pagecolor="#ffffff"
     id="base" />
  <metadata
     id="metadata5">
    <rdf:RDF>
      <cc:Work
         rdf:about="">
        <dc:format>image/svg+xml</dc:format>
        <dc:type
           rdf:resource="http://purl.org/dc/dcmitype/StillImage" />
        <dc:title></dc:title>
      </cc:Work>
    </rdf:RDF>
  </metadata>
  <g
     id="layer1"
     inkscape:groupmode="layer"
     inkscape:label="Layer 1">
    <g
       transform="matrix(0.84205959,0,0,0.84205959,38.436388,19.653998)"
       id="g44">
      <path
         id="path36"
         d="m 8,24 c 5.2109,0 7.5273,-1.543 9.2188,-2.6719 C 18.4609,20.5 19.2109,20 22,20 A 6.591,6.591 0 0 1 24.6563,21.0352 22.1536,22.1536 0 0 0 36,24 c 2.9453,0 5.52,-1.2852 7.7891,-2.4219 C 45.34,20.8008 46.9453,20 48,20 c 1.0547,0 2.66,0.8008 4.2109,1.5781 C 54.4805,22.7148 57.0547,24 60,24 A 22.1543,22.1543 0 0 0 71.3438,21.0352 6.59,6.59 0 0 1 74,20 c 2.7891,0 3.5391,0.5 4.7813,1.3281 C 80.4727,22.457 82.7891,24 88,24 a 4,4 0 0 0 0,-8 C 85.2109,16 84.4609,15.5 83.2188,14.6719 81.5273,13.543 79.2109,12 74,12 A 13.1959,13.1959 0 0 0 67.6367,13.9453 14.3655,14.3655 0 0 1 60,16 C 58.9453,16 57.34,15.1992 55.7891,14.4219 53.52,13.2852 50.9453,12 48,12 45.0547,12 42.48,13.2852 40.2109,14.4219 38.66,15.1992 37.0547,16 36,16 A 14.3655,14.3655 0 0 1 28.3633,13.9453 13.1959,13.1959 0 0 0 22,12 c -5.2109,0 -7.5273,1.543 -9.2187,2.6719 C 11.5391,15.5 10.7891,16 8,16 a 4,4 0 0 0 0,8 z" />
      <path
         id="path38"
         d="M 88,36 C 85.2109,36 84.4609,35.5 83.2188,34.6719 81.5273,33.543 79.2109,32 74,32 A 13.1959,13.1959 0 0 0 67.6367,33.9453 14.3655,14.3655 0 0 1 60,36 C 58.9453,36 57.34,35.1992 55.7891,34.4219 53.52,33.2852 50.9453,32 48,32 45.0547,32 42.48,33.2852 40.2109,34.4219 38.66,35.1992 37.0547,36 36,36 A 14.3655,14.3655 0 0 1 28.3633,33.9453 13.1959,13.1959 0 0 0 22,32 c -5.2109,0 -7.5273,1.543 -9.2187,2.6719 C 11.5391,35.5 10.7891,36 8,36 a 4,4 0 0 0 0,8 c 5.2109,0 7.5273,-1.543 9.2188,-2.6719 C 18.4609,40.5 19.2109,40 22,40 A 6.591,6.591 0 0 1 24.6563,41.0352 22.1536,22.1536 0 0 0 36,44 c 2.9453,0 5.52,-1.2852 7.7891,-2.4219 C 45.34,40.8008 46.9453,40 48,40 c 1.0547,0 2.66,0.8008 4.2109,1.5781 C 54.4805,42.7148 57.0547,44 60,44 A 22.1543,22.1543 0 0 0 71.3438,41.0352 6.59,6.59 0 0 1 74,40 c 2.7891,0 3.5391,0.5 4.7813,1.3281 C 80.4727,42.457 82.7891,44 88,44 a 4,4 0 0 0 0,-8 z" />
      <path
         id="path40"
         d="M 88,56 C 85.2109,56 84.4609,55.5 83.2188,54.6719 81.5273,53.543 79.2109,52 74,52 A 13.1959,13.1959 0 0 0 67.6367,53.9453 14.3655,14.3655 0 0 1 60,56 C 58.9453,56 57.34,55.1992 55.7891,54.4219 53.52,53.2852 50.9453,52 48,52 45.0547,52 42.48,53.2852 40.2109,54.4219 38.66,55.1992 37.0547,56 36,56 A 14.3655,14.3655 0 0 1 28.3633,53.9453 13.1959,13.1959 0 0 0 22,52 c -5.2109,0 -7.5273,1.543 -9.2187,2.6719 C 11.5391,55.5 10.7891,56 8,56 a 4,4 0 0 0 0,8 c 5.2109,0 7.5273,-1.543 9.2188,-2.6719 C 18.4609,60.5 19.2109,60 22,60 A 6.591,6.591 0 0 1 24.6563,61.0352 22.1536,22.1536 0 0 0 36,64 c 2.9453,0 5.52,-1.2852 7.7891,-2.4219 C 45.34,60.8008 46.9453,60 48,60 c 1.0547,0 2.66,0.8008 4.2109,1.5781 C 54.4805,62.7148 57.0547,64 60,64 A 22.1543,22.1543 0 0 0 71.3438,61.0352 6.59,6.59 0 0 1 74,60 c 2.7891,0 3.5391,0.5 4.7813,1.3281 C 80.4727,62.457 82.7891,64 88,64 a 4,4 0 0 0 0,-8 z" />
      <path
         id="path42"
         d="M 88,76 C 85.2109,76 84.4609,75.5 83.2188,74.6719 81.5273,73.543 79.2109,72 74,72 A 13.1959,13.1959 0 0 0 67.6367,73.9453 14.3655,14.3655 0 0 1 60,76 C 58.9453,76 57.34,75.1992 55.7891,74.4219 53.52,73.2852 50.9453,72 48,72 45.0547,72 42.48,73.2852 40.2109,74.4219 38.66,75.1992 37.0547,76 36,76 A 14.3655,14.3655 0 0 1 28.3633,73.9453 13.1959,13.1959 0 0 0 22,72 c -5.2109,0 -7.5273,1.543 -9.2187,2.6719 C 11.5391,75.5 10.7891,76 8,76 a 4,4 0 0 0 0,8 c 5.2109,0 7.5273,-1.543 9.2188,-2.6719 C 18.4609,80.5 19.2109,80 22,80 A 6.591,6.591 0 0 1 24.6563,81.0352 22.1536,22.1536 0 0 0 36,84 c 2.9453,0 5.52,-1.2852 7.7891,-2.4219 C 45.34,80.8008 46.9453,80 48,80 c 1.0547,0 2.66,0.8008 4.2109,1.5781 C 54.4805,82.7148 57.0547,84 60,84 A 22.1543,22.1543 0 0 0 71.3438,81.0352 6.59,6.59 0 0 1 74,80 c 2.7891,0 3.5391,0.5 4.7813,1.3281 C 80.4727,82.457 82.7891,84 88,84 a 4,4 0 0 0 0,-8 z" />
    </g>
  </g>
</svg>
