<?xml version="1.0" encoding="UTF-8" standalone="no"?>
<svg
   xmlns:dc="http://purl.org/dc/elements/1.1/"
   xmlns:cc="http://creativecommons.org/ns#"
   xmlns:rdf="http://www.w3.org/1999/02/22-rdf-syntax-ns#"
   xmlns:svg="http://www.w3.org/2000/svg"
   xmlns="http://www.w3.org/2000/svg"
   xmlns:sodipodi="http://sodipodi.sourceforge.net/DTD/sodipodi-0.dtd"
   xmlns:inkscape="http://www.inkscape.org/namespaces/inkscape"
   sodipodi:docname="Tail.svg"
   inkscape:version="1.0 (4035a4fb49, 2020-05-01)"
   id="svg8"
   version="1.1"
   viewBox="0 0 210 297"
   height="297mm"
   width="210mm">
  <defs
     id="defs2">
    <style
       type="text/css"
       id="style28">
   
    .fil0 {fill:black}
   
  </style>
  </defs>
  <sodipodi:namedview
     inkscape:window-maximized="1"
     inkscape:window-y="-9"
     inkscape:window-x="-9"
     inkscape:window-height="1001"
     inkscape:window-width="1920"
     showgrid="false"
     inkscape:document-rotation="0"
     inkscape:current-layer="layer1"
     inkscape:document-units="mm"
     inkscape:cy="599.1215"
     inkscape:cx="426.22164"
     inkscape:zoom="0.7"
     inkscape:pageshadow="2"
     inkscape:pageopacity="0.0"
     borderopacity="1.0"
     bordercolor="#666666"
     pagecolor="#ffffff"
     id="base" />
  <metadata
     id="metadata5">
    <rdf:RDF>
      <cc:Work
         rdf:about="">
        <dc:format>image/svg+xml</dc:format>
        <dc:type
           rdf:resource="http://purl.org/dc/dcmitype/StillImage" />
        <dc:title></dc:title>
      </cc:Work>
    </rdf:RDF>
  </metadata>
  <g
     id="layer1"
     inkscape:groupmode="layer"
     inkscape:label="Layer 1">
    <g
       transform="matrix(2.8164479,0,0,2.8164479,87.553465,61.01779)"
       id="g34"
       style="clip-rule:evenodd;fill-rule:evenodd;image-rendering:optimizeQuality;shape-rendering:geometricPrecision;text-rendering:geometricPrecision">
      <path
         id="path32"
         d="M 0.0021,11.3409 C -0.0741,10.2808 1.9906,9.7272 2.2144,8.3825 3.079,3.1896 8.4786,-0.9584 13.6041,0.1937 c -0.3806,0.0871 -1.9896,0.1786 -2.0258,0.3694 10.1177,-0.9409 9.9493,15.5827 2.7855,19.2353 -0.1326,0.0676 0.4505,-0.4994 0.7126,-1.4851 -0.4202,0.8839 -2.3591,3.71 -4.9468,2.276 1.6267,-0.1308 2.7821,-2.0845 2.3931,-2.6829 -0.1387,-0.2133 -1.5983,0.6428 -1.3517,0.4423 2.0327,-1.6528 3.871,-6.5448 0.4428,-8.1475 -0.4514,-0.211 0.5104,0.7469 0.595,1.2684 0.008,0.0489 -5.4654,-5.6513 -9.9049,1.4942 -0.9261,1.4906 -2.271,-1.1957 -2.3018,-1.6229 z"
         class="fil0" />
    </g>
  </g>
</svg>
